<?xml version="1.0" encoding="UTF-8"?>
<svg id="Layer_1" xmlns="http://www.w3.org/2000/svg" version="1.1" viewBox="0 0 24 24">
  <!-- Generator: Adobe Illustrator 29.2.1, SVG Export Plug-In . SVG Version: 2.1.0 Build 116)  -->
  <defs>
    <style>
      .st0 {
        fill: #0a6ed4;
      }
    </style>
  </defs>
  <path class="st0" d="M24,3v7c0,.6-.4,1-1,1s-1-.4-1-1V3.4l-11.8,11.8c-.2.2-.5.3-.7.3s-.5,0-.7-.3c-.4-.4-.4-1,0-1.4L20.6,2h-6.6c-.6,0-1-.4-1-1s.4-1,1-1h7c1.7,0,3,1.3,3,3ZM23,14c-.6,0-1,.4-1,1v4c0,1.7-1.3,3-3,3H5c-1.7,0-3-1.3-3-3V5c0-1.7,1.3-3,3-3h4c.6,0,1-.4,1-1s-.4-1-1-1h-4C2.2,0,0,2.2,0,5v14c0,2.8,2.2,5,5,5h14c2.8,0,5-2.2,5-5v-4c0-.6-.4-1-1-1Z"/>
</svg>