<?xml version="1.0" encoding="utf-8"?>
<!-- Generator: Adobe Illustrator 27.0.0, SVG Export Plug-In . SVG Version: 6.00 Build 0)  -->
<svg version="1.1" id="Layer_2_00000044137292545249215530000014024345747239524234_"
	 xmlns="http://www.w3.org/2000/svg" xmlns:xlink="http://www.w3.org/1999/xlink" x="0px" y="0px" viewBox="0 0 935.2 192.4"
	 style="enable-background:new 0 0 935.2 192.4;" xml:space="preserve">
<style type="text/css">
	.st0{fill:#0A6ED4;}
	.st1{fill:#004182;}
	.st2{fill:url(#SVGID_1_);}
	.st3{fill:url(#SVGID_00000033364502070786614210000012710036529545719483_);}
</style>
<g id="Layer_1-2">
	<g>
		<g>
			<path class="st0" d="M272.7,153.9c-8.2,0-15.7-1.4-22.6-4.3c-6.9-2.9-12.8-6.8-17.9-11.9c-5.1-5.1-9-11.2-11.8-18.2
				c-2.7-7-4.1-14.6-4.1-22.8s1.4-15.9,4.1-22.9c2.7-6.9,6.6-13,11.8-18.1s11.1-9.1,17.9-11.9c6.8-2.8,14.3-4.3,22.4-4.3
				s15.7,1.4,22.5,4.3c6.8,2.8,12.7,6.8,17.8,12c5.1,5.2,9,11.2,11.8,18.2c2.7,6.9,4.1,14.5,4.1,22.7s-1.4,15.8-4.1,22.7
				c-2.7,6.9-6.7,13-11.8,18.1c-5.1,5.2-11,9.1-17.8,12C288.3,152.4,280.8,153.8,272.7,153.9L272.7,153.9z M272.6,131.4
				c4.7,0,9-0.9,12.9-2.6c3.9-1.7,7.3-4.2,10.1-7.3s5.1-6.8,6.7-11s2.5-8.8,2.5-13.9s-0.8-9.7-2.5-13.9s-3.9-7.9-6.7-11
				c-2.8-3.1-6.2-5.5-10.1-7.3c-3.9-1.7-8.2-2.6-12.9-2.6s-8.9,0.9-12.8,2.6c-3.9,1.7-7.3,4.2-10.3,7.3s-5.2,6.8-6.7,11
				s-2.3,8.8-2.3,13.9s0.8,9.7,2.3,13.9c1.5,4.2,3.8,7.9,6.7,11c2.9,3.1,6.4,5.5,10.3,7.3C263.7,130.6,267.9,131.4,272.6,131.4z"/>
			<path class="st0" d="M336.7,187V68.8h21.6l0.6,18.8l-4.1-1.4c0.7-3.4,2.5-6.5,5.5-9.3c2.9-2.8,6.5-5.2,10.8-6.9s8.8-2.7,13.6-2.7
				c7.3,0,13.7,1.9,19.4,5.6c5.7,3.7,10.1,8.8,13.4,15.3s4.9,13.9,4.9,22.3s-1.6,15.7-4.9,22.2s-7.7,11.6-13.4,15.4
				c-5.7,3.7-12.1,5.6-19.4,5.6c-4.8,0-9.5-0.9-13.8-2.8c-4.4-1.8-8-4.3-11-7.3s-4.9-6.3-5.8-9.8l5.2-2.2V187H336.7z M379.7,134.4
				c4.1,0,7.7-1,10.9-3s5.6-4.8,7.4-8.4s2.7-7.8,2.7-12.6s-0.9-8.9-2.7-12.5c-1.8-3.6-4.2-6.4-7.3-8.4c-3.1-2-6.8-3-11-3
				s-7.9,1-11,2.9c-3.2,1.9-5.6,4.7-7.4,8.4c-1.8,3.6-2.7,7.8-2.7,12.6s0.9,8.9,2.7,12.6c1.8,3.6,4.3,6.5,7.4,8.4
				C371.8,133.4,375.5,134.4,379.7,134.4L379.7,134.4z"/>
			<path class="st0" d="M427.2,89l-11.6-20.2h61.1v20L427.2,89L427.2,89z M437.1,152.3V47.6h22.5v104.6L437.1,152.3L437.1,152.3z"/>
			<path class="st0" d="M495.8,51.6c-4.3,0-7.7-1.1-10.1-3.2s-3.6-5.2-3.6-9.1c0-3.6,1.2-6.5,3.7-8.8s5.8-3.4,10-3.4
				c4.2,0,7.7,1.1,10.1,3.2s3.6,5.1,3.6,8.9c0,3.6-1.2,6.5-3.7,8.8C503.3,50.5,500,51.6,495.8,51.6L495.8,51.6z M484.7,152.2V68.7
				h22.4v83.5H484.7L484.7,152.2z"/>
			<path class="st0" d="M515.1,152.3V68.8h21.7l0.5,15.9l-3.3,0.6c1.2-2.7,2.7-5.2,4.7-7.4c2-2.2,4.2-4.1,6.7-5.7s5.2-2.8,8-3.7
				c2.8-0.9,5.7-1.3,8.5-1.3c4.3,0,8.2,0.7,11.7,2.1s6.4,3.5,8.8,6.4c2.4,2.9,4.3,6.7,5.7,11.4l-3.5-0.3l1.1-2.5
				c1.4-2.5,3.1-4.8,5.2-6.9c2.1-2.1,4.5-3.9,7.1-5.4s5.4-2.6,8.2-3.5c2.8-0.8,5.6-1.3,8.4-1.3c6.5,0,11.9,1.3,16.3,3.9
				c4.3,2.6,7.5,6.4,9.7,11.6s3.2,11.5,3.2,18.9v50.7h-22.4v-49.1c0-3.8-0.5-6.9-1.6-9.3s-2.6-4.2-4.6-5.4s-4.6-1.8-7.7-1.8
				c-2.4,0-4.7,0.4-6.7,1.2s-3.8,1.9-5.4,3.3c-1.5,1.4-2.7,3.1-3.5,5.1c-0.8,1.9-1.3,4-1.3,6.2v49.9H568V103c0-3.5-0.5-6.4-1.6-8.9
				c-1-2.5-2.6-4.3-4.6-5.6s-4.5-1.9-7.4-1.9c-2.4,0-4.7,0.4-6.7,1.2c-2,0.8-3.8,1.9-5.3,3.3s-2.6,3.1-3.5,5
				c-0.8,1.9-1.3,3.9-1.3,6.2v50L515.1,152.3L515.1,152.3z"/>
		</g>
		<g>
			<g>
				<path class="st1" d="M667.6,152.1V41.6h23.7v110.5H667.6L667.6,152.1z M677.1,107.7l0.2-21.5h72.1v21.5H677.1z M737.2,152.1
					V41.6h23.7v110.5H737.2L737.2,152.1z"/>
				<path class="st1" d="M780,51.5c-4.3,0-7.7-1.1-10.1-3.2s-3.6-5.2-3.6-9.1c0-3.6,1.2-6.5,3.7-8.8s5.8-3.4,10-3.4
					s7.7,1.1,10.1,3.2s3.6,5.1,3.6,8.9c0,3.6-1.2,6.5-3.7,8.8C787.5,50.3,784.2,51.5,780,51.5z M768.9,152V69h22.4v83H768.9
					L768.9,152z"/>
				<path class="st1" d="M799.3,152.1v-83h21.6l0.8,26.3l-3.8-5.5c1.3-4.3,3.3-8.2,6.2-11.8c2.8-3.5,6.2-6.3,10-8.3s7.9-3,12.1-3
					c1.8,0,3.5,0.2,5.2,0.5s3.1,0.7,4.3,1.1l-10.5,23c0,0-3.7-0.7-5.6-0.7c-2.5,0-4.9,0.4-7,1.3c-2.2,0.9-4,2.2-5.6,3.8
					c-1.6,1.6-2.8,3.6-3.7,5.8s-1.3,4.6-1.3,7.3v43.2L799.3,152.1L799.3,152.1z"/>
				<path class="st1" d="M895.8,153.6c-9,0-17-1.8-23.8-5.5s-12-8.7-15.8-15.1c-3.7-6.4-5.6-13.8-5.6-22.1c0-6.5,1-12.5,3.2-17.8
					c2.1-5.4,5-10,8.8-14c3.8-3.9,8.3-7,13.5-9.2s10.9-3.2,17-3.2c5.7,0,10.9,1.1,15.8,3.2s9,5,12.5,8.8c3.5,3.7,6.2,8.2,8.1,13.3
					c1.9,5.1,2.7,10.6,2.5,16.5l-0.2,6.9h-67.1l-3.6-13.7h52.2l-2.5,2.8V101c-0.2-2.8-1.1-5.4-2.8-7.7s-3.7-4.1-6.2-5.4
					s-5.4-2-8.5-2c-4.6,0-8.5,0.9-11.8,2.7c-3.2,1.8-5.7,4.4-7.3,7.9c-1.7,3.5-2.5,7.7-2.5,12.6s1.1,9.4,3.2,13.1
					c2.2,3.7,5.2,6.5,9.2,8.6s8.6,3.1,14,3.1c3.7,0,7-0.6,10.1-1.7s6.3-3.2,9.8-6l10.7,15c-3,2.7-6.4,5-10.1,6.9
					c-3.7,1.8-7.5,3.2-11.4,4.2C903.5,153.1,899.6,153.6,895.8,153.6L895.8,153.6z"/>
			</g>
		</g>
		<g>
			<path class="st1" d="M174.6,116.7c-16.7,0-31.8,9.2-40.1,23.6C125,157,108.9,166,87.9,166.1c-20.9,0-36.9-9-46.4-25.7
				c-8.3-14.5-23.4-23.6-40.1-23.6H1.3c7.1,47.2,39.1,75.6,86.6,75.6C135.7,192.4,167.7,164,174.6,116.7L174.6,116.7z"/>
			<path class="st0" d="M87.8,0.1C35.6,0.1,2.2,34.5,0,90.3l0,0c16.4,0,31-10.5,36.1-26.1c8-24.4,26.2-37.9,51.7-37.9
				c25.7,0,44,13.4,52,37.9c5.1,15.6,19.8,26,36.2,26l0,0C173.8,34.3,140.3,0,87.8,0.1z"/>

				<linearGradient id="SVGID_1_" gradientUnits="userSpaceOnUse" x1="-27.4265" y1="-737.15" x2="60.4739" y2="-737.15" gradientTransform="matrix(1 0 0 -1 0 -692)">
				<stop  offset="0" style="stop-color:#006EFF"/>
				<stop  offset="1" style="stop-color:#3FB8FF"/>
			</linearGradient>
			<path class="st2" d="M-0.1,90.3c0,0-0.9-88.9,87.9-90.3C25.9,25.8,54.3,86.8-0.1,90.3z"/>

				<linearGradient id="SVGID_00000106856544909715156190000015970290888862625208_" gradientUnits="userSpaceOnUse" x1="74.8" y1="-846.5411" x2="174.6" y2="-846.5411" gradientTransform="matrix(1 0 0 -1 0 -692)">
				<stop  offset="0" style="stop-color:#1999FF"/>
				<stop  offset="0.1941" style="stop-color:#1690F6"/>
				<stop  offset="0.5166" style="stop-color:#0F78DC"/>
				<stop  offset="0.9258" style="stop-color:#0252B3"/>
				<stop  offset="0.998" style="stop-color:#004AAB"/>
			</linearGradient>
			<path style="fill:url(#SVGID_00000106856544909715156190000015970290888862625208_);" d="M174.6,116.8c0,0-6.9,83.2-99.8,74.9
				C140.1,176.1,120,120.8,174.6,116.8z"/>
		</g>
	</g>
</g>
</svg>
