<?xml version="1.0" encoding="UTF-8"?>
<svg id="Layer_1" xmlns="http://www.w3.org/2000/svg" version="1.1" viewBox="0 0 512 512">
  <!-- Generator: Adobe Illustrator 29.2.1, SVG Export Plug-In . SVG Version: 2.1.0 Build 116)  -->
  <defs>
    <style>
      .st0 {
        fill: #d72020;
      }
    </style>
  </defs>
  <path class="st0" d="M234.7,277.3v-128c0-11.7,9.6-21.3,21.3-21.3s21.3,9.6,21.3,21.3v128c0,11.7-9.6,21.3-21.3,21.3s-21.3-9.6-21.3-21.3ZM256,320c-17.7,0-32,14.3-32,32s14.3,32,32,32,32-14.3,32-32-14.3-32-32-32ZM503,424.1c-14.9,28.8-46.3,45.2-85.5,45.2H94.7c-39.5,0-70.6-16.4-85.5-45.2-15.1-29-10.9-66.1,10.7-97.3L191.4,55.5c15.1-21.8,39-34.1,64.6-34.1s49.5,12.4,64,33.5l172.4,272.4c21.5,31.1,25.6,68.1,10.5,96.9h.2ZM457.2,351.1s-.4-.4-.4-.9L284.6,78.3c-6.2-8.7-16.9-14.3-28.6-14.3s-22.4,5.5-29,15.1L55.3,350.3c-13.2,18.8-16.2,39.3-8.5,54,7.5,14.5,24.5,22.4,47.8,22.4h322.6c23.3,0,40.3-7.9,47.8-22.4,7.7-14.7,4.7-35.2-7.9-53.1h.2Z"/>
</svg>