<svg xmlns="http://www.w3.org/2000/svg" width="720" height="1280" viewBox="0 0 720 1280" role="img" aria-labelledby="title desc">
  <title id="title">OptimHire technical walkthrough poster</title>
  <desc id="desc">Placeholder poster for the OptimHire technical walkthrough recording.</desc>
  <rect width="720" height="1280" fill="#f6f8fb"/>
  <path d="M0 0h720v1280H0z" fill="url(#grid)"/>
  <rect x="64" y="92" width="592" height="1100" rx="48" fill="#ffffff" stroke="#252a37" stroke-width="8"/>
  <circle cx="360" cy="330" r="128" fill="#0a6ed4" opacity=".12"/>
  <circle cx="360" cy="330" r="88" fill="#0a6ed4"/>
  <path d="M336 278l88 52-88 52z" fill="#ffffff"/>
  <rect x="112" y="520" width="496" height="36" rx="18" fill="#252a37"/>
  <rect x="112" y="590" width="390" height="28" rx="14" fill="#747b8a"/>
  <rect x="112" y="652" width="438" height="28" rx="14" fill="#747b8a"/>
  <rect x="112" y="714" width="322" height="28" rx="14" fill="#747b8a"/>
  <rect x="108" y="916" width="504" height="78" rx="28" fill="#4dbb7c" stroke="#252a37" stroke-width="5"/>
  <text x="360" y="1070" text-anchor="middle" font-family="Lexend, Arial, sans-serif" font-size="42" font-weight="900" fill="#252a37">Technical walkthrough</text>
  <text x="360" y="1122" text-anchor="middle" font-family="Lexend, Arial, sans-serif" font-size="22" font-weight="700" fill="#747b8a">assets/showcase/technical-walkthrough.mp4</text>
  <defs>
    <pattern id="grid" width="44" height="44" patternUnits="userSpaceOnUse">
      <path d="M44 0H0v44" fill="none" stroke="#252a37" stroke-width="1" opacity=".08"/>
    </pattern>
  </defs>
</svg>
